<?xml version="1.0" standalone="no"?>
<!DOCTYPE svg PUBLIC "-//W3C//DTD SVG 20010904//EN"
 "http://www.w3.org/TR/2001/REC-SVG-20010904/DTD/svg10.dtd">
<svg version="1.0" xmlns="http://www.w3.org/2000/svg"
 width="500.000000pt" height="500.000000pt" viewBox="0 0 500.000000 500.000000"
 preserveAspectRatio="xMidYMid meet">
<metadata>
Created by potrace 1.14, written by Peter Selinger 2001-2017
</metadata>
<g transform="translate(0.000000,500.000000) scale(0.100000,-0.100000)"
fill="#000000" stroke="none">
<path d="M2330 4924 c0 -5 -21 -10 -47 -10 -44 -1 -121 -9 -133 -14 -3 -1 -13
-1 -24 0 -10 1 -16 -2 -13 -7 3 -4 -11 -7 -31 -7 -21 1 -41 -1 -47 -4 -11 -7
-27 -11 -65 -16 -14 -2 -32 -6 -40 -9 -27 -10 -75 -20 -84 -18 -5 1 -6 -6 -2
-15 5 -13 4 -14 -7 -5 -11 8 -27 7 -66 -7 -29 -10 -48 -22 -44 -26 4 -5 2 -6
-5 -2 -13 8 -82 -13 -82 -26 0 -4 -7 -5 -15 -2 -8 4 -15 2 -15 -3 0 -5 -6 -10
-12 -10 -7 0 -31 -8 -53 -18 -146 -66 -185 -87 -179 -97 4 -7 3 -8 -5 -4 -11
7 -108 -43 -136 -70 -8 -9 -15 -13 -15 -10 0 4 -18 -6 -40 -20 -27 -18 -39
-32 -35 -42 4 -12 3 -12 -9 -3 -11 10 -17 8 -28 -8 -8 -12 -17 -19 -20 -16 -3
3 -17 -6 -32 -20 -15 -13 -36 -29 -47 -35 -11 -6 -17 -15 -14 -21 4 -5 0 -9
-9 -9 -8 0 -38 -22 -67 -50 -29 -27 -56 -50 -60 -50 -13 0 -29 -36 -21 -45 4
-5 1 -5 -6 -1 -13 8 -45 -18 -35 -28 4 -3 -1 -6 -9 -6 -8 0 -24 -12 -34 -26
-10 -14 -35 -42 -54 -63 -42 -44 -66 -74 -65 -81 0 -3 -15 -21 -33 -40 -18
-19 -54 -66 -79 -105 -25 -38 -58 -88 -73 -110 -15 -22 -30 -47 -33 -55 -4 -8
-16 -30 -27 -48 -11 -18 -18 -38 -15 -43 4 -5 2 -9 -3 -9 -14 0 -44 -68 -36
-82 4 -6 3 -8 -3 -5 -12 8 -65 -111 -56 -126 3 -6 1 -7 -5 -3 -11 7 -16 -7
-15 -41 1 -7 -3 -13 -7 -13 -6 0 -32 -71 -34 -95 -1 -5 -4 -12 -8 -15 -4 -3
-9 -17 -11 -30 -3 -14 -12 -44 -20 -67 -9 -28 -11 -40 -3 -36 7 4 7 1 -1 -8
-7 -8 -14 -32 -17 -52 -2 -20 -7 -40 -9 -44 -6 -10 -18 -75 -23 -123 -5 -58
-13 -100 -19 -109 -3 -5 1 -12 7 -14 10 -4 10 -7 0 -15 -8 -5 -12 -26 -11 -55
2 -26 0 -49 -4 -53 -3 -3 -2 -17 4 -31 6 -16 6 -22 -1 -18 -6 3 -10 -1 -10
-10 0 -10 5 -13 12 -9 10 6 10 4 2 -7 -6 -8 -9 -47 -7 -94 2 -44 4 -97 4 -117
1 -23 5 -35 12 -31 6 4 7 1 1 -8 -10 -16 -12 -69 -3 -69 3 0 6 -8 6 -17 -1
-69 4 -94 16 -87 9 6 9 5 0 -8 -7 -8 -10 -17 -7 -20 3 -4 8 -21 11 -40 3 -18
10 -39 16 -47 10 -12 9 -13 -2 -6 -11 6 -13 4 -6 -11 4 -10 10 -34 13 -51 2
-18 8 -31 12 -28 4 3 8 -1 7 -8 -1 -33 4 -58 10 -54 5 3 8 -11 9 -30 0 -19 5
-38 10 -41 5 -4 10 -20 12 -37 7 -62 161 -403 176 -388 4 4 4 0 0 -10 -3 -10
-1 -17 6 -17 6 0 9 -4 6 -9 -4 -5 -3 -11 1 -13 5 -1 17 -21 29 -43 12 -22 25
-39 30 -38 6 1 10 -7 11 -17 2 -27 33 -71 46 -63 6 3 7 1 3 -6 -9 -14 12 -43
25 -35 5 3 6 -2 3 -10 -3 -9 5 -26 20 -41 14 -14 26 -28 26 -31 0 -3 6 -11 12
-18 7 -7 29 -33 48 -56 19 -24 64 -74 99 -112 48 -51 67 -65 74 -56 7 10 8 9
4 -3 -3 -10 13 -33 44 -63 27 -26 49 -45 49 -42 0 2 15 -10 33 -27 18 -18 43
-39 55 -47 13 -8 38 -27 55 -43 17 -15 37 -25 45 -22 7 2 11 1 8 -4 -6 -10 41
-44 61 -44 7 0 10 -4 8 -8 -5 -7 103 -76 112 -71 3 2 9 -1 12 -7 7 -11 221
-123 221 -115 0 2 11 -3 25 -12 13 -8 28 -13 34 -10 5 3 11 1 13 -4 2 -6 13
-12 26 -13 12 0 22 -5 22 -9 0 -8 83 -32 96 -28 4 1 10 -2 13 -8 11 -16 101
-42 101 -29 0 8 3 8 9 -1 4 -7 36 -20 71 -28 51 -12 65 -12 72 -2 5 9 8 7 8
-6 0 -20 0 -20 15 0 11 14 14 15 9 3 -3 -10 -1 -20 5 -24 6 -3 11 0 11 7 0 9
2 10 8 2 4 -7 30 -14 57 -17 28 -3 61 -8 75 -12 14 -3 68 -8 120 -10 52 -2 95
-5 95 -5 0 -1 10 -3 23 -4 12 -2 22 2 22 8 0 7 3 7 8 1 9 -13 85 -13 94 0 5 6
8 5 8 -4 0 -11 3 -11 15 -1 10 8 15 9 15 2 0 -6 6 -9 13 -7 12 5 106 13 165
14 21 1 31 5 26 12 -5 8 -1 8 13 0 11 -6 23 -8 26 -5 3 3 22 7 43 10 22 2 50
7 64 10 14 4 34 8 45 10 29 5 60 12 60 14 0 1 11 3 25 6 14 2 36 7 50 11 14 3
28 6 33 5 4 -1 7 3 7 9 0 5 5 7 10 4 6 -4 17 -1 25 5 8 7 15 10 15 7 0 -7 68
13 115 33 17 7 33 13 38 12 4 -1 7 2 7 8 0 5 7 7 15 4 10 -4 15 0 16 12 0 11
3 14 5 7 4 -9 11 -9 29 -1 14 6 22 15 19 19 -3 5 3 6 12 2 11 -4 23 2 35 18
13 15 17 18 13 6 -6 -17 -5 -17 24 0 16 9 29 22 28 28 -2 5 -1 7 1 3 8 -15 32
-8 46 12 8 11 16 17 19 14 8 -7 138 66 138 77 0 5 3 8 8 7 13 -4 72 32 72 44
0 6 3 8 6 5 7 -6 86 50 92 65 2 5 9 5 15 1 6 -4 8 0 4 10 -3 9 -3 16 1 16 21
-3 35 5 71 40 22 21 42 36 45 33 3 -3 6 2 6 12 0 9 4 15 9 12 11 -7 53 38 44
48 -4 4 1 4 11 0 13 -5 17 -4 13 3 -4 6 0 14 9 17 8 3 13 10 9 15 -3 5 0 13 6
17 8 4 9 3 5 -4 -29 -47 73 51 144 139 16 20 26 40 22 44 -4 5 -2 5 5 1 13 -7
126 141 117 155 -3 5 -2 8 3 7 4 -2 9 1 10 5 1 5 9 14 19 21 11 8 14 18 9 27
-5 8 -5 11 0 7 5 -5 23 13 40 40 39 58 111 194 107 205 -1 4 3 7 9 7 6 0 9 7
5 15 -3 8 -1 15 4 15 18 0 95 194 84 211 -4 8 -3 9 4 5 11 -6 17 12 13 37 0 4
3 7 8 7 5 0 8 15 6 33 -3 19 -1 27 4 19 7 -11 10 -10 15 3 10 26 7 37 -6 29
-7 -4 -6 1 3 12 19 23 28 45 35 92 3 20 10 46 15 59 7 18 6 22 -4 17 -6 -4 -3
3 8 16 15 18 16 22 4 18 -9 -4 -16 -1 -16 7 0 7 7 11 14 8 8 -3 13 -2 11 3 -1
5 4 39 10 76 7 37 12 70 11 75 -1 4 1 19 4 33 13 50 15 195 3 209 -8 12 -8 13
2 7 10 -6 12 21 7 141 -9 200 -8 193 -17 193 -4 0 -5 7 -2 15 6 16 -25 216
-35 225 -3 3 -7 14 -8 25 0 11 -3 31 -6 45 -3 14 -6 27 -6 29 -1 2 -9 -3 -18
-10 -17 -13 -17 -13 -1 7 15 17 15 23 5 44 -15 29 -17 35 -17 56 0 9 -5 12
-12 8 -7 -4 -8 -3 -4 5 7 11 -30 140 -43 151 -3 3 -8 14 -9 25 -2 11 -7 22
-10 25 -4 3 -7 10 -7 15 0 10 -47 113 -66 145 -4 8 -17 34 -28 58 -11 24 -25
41 -31 37 -5 -3 -7 0 -4 8 3 8 -1 21 -9 28 -7 8 -15 19 -18 24 -2 6 -8 9 -12
7 -5 -1 -6 2 -2 7 5 9 -19 57 -35 71 -4 3 -10 14 -14 25 -6 16 -9 17 -17 5 -7
-11 -8 -9 -7 10 2 16 -2 24 -10 22 -6 -1 -11 4 -10 10 2 7 -2 12 -9 11 -7 -2
-10 3 -7 10 5 15 -53 93 -67 89 -5 -1 -8 4 -7 10 2 7 -3 12 -10 10 -8 -1 -11
2 -7 8 4 6 0 19 -9 28 -9 9 -37 40 -62 67 -26 28 -51 48 -58 47 -6 -2 -8 0 -4
4 10 9 -12 35 -23 28 -5 -3 -8 0 -7 8 2 7 -5 12 -14 12 -10 -1 -15 2 -12 7 5
8 -47 69 -59 69 -2 0 -23 18 -46 40 -23 22 -47 37 -53 34 -6 -4 -8 -3 -5 3 7
11 -39 46 -60 46 -7 0 -10 4 -8 8 8 12 -23 31 -37 23 -7 -4 -10 -4 -6 1 12 13
-12 35 -29 28 -10 -4 -14 -2 -10 4 4 6 -9 19 -28 29 -19 10 -35 21 -35 25 0
10 -51 30 -61 23 -5 -3 -8 0 -7 7 2 6 -3 14 -11 17 -9 3 -11 0 -6 -9 5 -8 4
-11 -1 -6 -5 5 -9 13 -9 18 0 14 -75 49 -76 35 0 -6 -5 0 -10 13 -6 15 -15 21
-24 17 -8 -3 -15 -1 -15 5 0 6 -7 8 -16 5 -8 -3 -13 -2 -10 3 7 11 -22 23 -36
14 -6 -3 -8 -1 -5 4 4 6 -1 13 -11 16 -9 3 -44 17 -77 32 -33 14 -72 27 -87
28 -14 1 -24 5 -21 10 4 6 -15 11 -44 10 -7 -1 -11 3 -8 7 4 6 -46 25 -95 34
-8 2 -22 5 -30 8 -44 16 -94 26 -102 22 -5 -3 -3 -13 4 -22 12 -15 11 -16 -4
-4 -10 8 -16 18 -15 22 1 4 -1 9 -5 10 -4 1 -22 5 -40 11 -23 6 -34 5 -40 -4
-5 -8 -8 -6 -8 8 -1 20 -1 20 -15 1 -12 -16 -15 -17 -15 -4 0 12 -15 18 -57
23 -98 13 -157 13 -171 3 -9 -8 -11 -7 -7 4 4 9 0 15 -9 15 -8 0 -12 -5 -9
-11 4 -6 0 -5 -9 2 -13 10 -17 10 -21 0 -4 -10 -6 -10 -6 1 -1 11 -4 11 -18 0
-11 -10 -14 -10 -9 -1 4 7 1 12 -8 12 -9 0 -16 -4 -16 -10 0 -5 -5 -10 -11
-10 -5 0 -7 5 -4 10 9 14 -8 12 -24 -2 -11 -10 -13 -10 -7 0 5 9 -6 12 -46 12
-30 0 -60 -6 -67 -12 -8 -7 -11 -8 -8 -2 3 6 0 11 -8 11 -8 0 -11 -5 -8 -11 4
-6 -1 -5 -10 3 -13 10 -17 10 -17 1 0 -10 -3 -10 -15 0 -8 7 -15 9 -15 4z
m-75 -24 c-3 -5 -12 -10 -18 -10 -7 0 -6 4 3 10 19 12 23 12 15 0z m319 -18
c2 -4 -4 -8 -14 -8 -10 0 -16 4 -14 8 3 4 9 8 14 8 5 0 11 -4 14 -8z m-540
-40 c2 -4 -4 -8 -14 -8 -10 0 -16 4 -14 8 3 4 9 8 14 8 5 0 11 -4 14 -8z m216
-26 c0 -2 -8 -10 -17 -17 -16 -13 -17 -12 -4 4 13 16 21 21 21 13z m241 -13
c13 -16 12 -17 -3 -4 -17 13 -22 21 -14 21 2 0 10 -8 17 -17z m639 13 c0 -2
-8 -10 -17 -17 -16 -13 -17 -12 -4 4 13 16 21 21 21 13z m-327 -31 c-3 -9 -8
-14 -10 -11 -3 3 -2 9 2 15 9 16 15 13 8 -4z m561 -111 c3 -8 2 -12 -4 -9 -6
3 -10 10 -10 16 0 14 7 11 14 -7z m-1723 -47 c-10 -9 -11 -8 -5 6 3 10 9 15
12 12 3 -3 0 -11 -7 -18z m1739 18 c0 -2 -6 -8 -13 -14 -10 -8 -14 -7 -14 2 0
8 6 14 14 14 7 0 13 -1 13 -2z m230 -5 c0 -5 -2 -10 -4 -10 -3 0 -8 5 -11 10
-3 6 -1 10 4 10 6 0 11 -4 11 -10z m-205 -9 c3 -5 2 -12 -3 -15 -5 -3 -9 1 -9
9 0 17 3 19 12 6z m-1840 -20 c3 -5 2 -12 -3 -15 -5 -3 -9 1 -9 9 0 17 3 19
12 6z m2040 0 c3 -5 2 -12 -3 -15 -5 -3 -9 1 -9 9 0 17 3 19 12 6z m-2065 -5
c0 -2 -8 -10 -17 -17 -16 -13 -17 -12 -4 4 13 16 21 21 21 13z m2040 0 c0 -2
-8 -10 -17 -17 -16 -13 -17 -12 -4 4 13 16 21 21 21 13z m344 -216 c-6 -6 -10
-3 -10 10 0 13 4 16 10 10 7 -7 7 -13 0 -20z m-2784 16 c0 -2 -8 -10 -17 -17
-16 -13 -17 -12 -4 4 13 16 21 21 21 13z m2824 -12 c3 -8 2 -12 -4 -9 -6 3
-10 10 -10 16 0 14 7 11 14 -7z m-14 -94 c0 -5 -2 -10 -4 -10 -3 0 -8 5 -11
10 -3 6 -1 10 4 10 6 0 11 -4 11 -10z m-2975 -20 c-3 -5 -12 -10 -18 -10 -7 0
-6 4 3 10 19 12 23 12 15 0z m-107 -45 c-3 -3 -9 2 -12 12 -6 14 -5 15 5 6 7
-7 10 -15 7 -18z m106 7 c2 -4 -4 -8 -14 -8 -10 0 -16 4 -14 8 3 4 9 8 14 8 5
0 11 -4 14 -8z m-184 -82 c0 -5 -2 -10 -4 -10 -3 0 -8 5 -11 10 -3 6 -1 10 4
10 6 0 11 -4 11 -10z m3380 -4 c-7 -7 -13 -7 -20 0 -6 6 -3 10 10 10 13 0 16
-4 10 -10z m0 -30 c0 -2 -7 -7 -16 -10 -8 -3 -12 -2 -9 4 6 10 25 14 25 6z
m154 -56 c-6 -6 -10 -3 -10 10 0 13 4 16 10 10 7 -7 7 -13 0 -20z m-3584 16
c0 -2 -8 -10 -17 -17 -16 -13 -17 -12 -4 4 13 16 21 21 21 13z m3530 -106 c0
-5 -5 -10 -11 -10 -5 0 -7 5 -4 10 3 6 8 10 11 10 2 0 4 -4 4 -10z m-3579 -17
c13 -16 12 -17 -3 -4 -10 7 -18 15 -18 17 0 8 8 3 21 -13z m34 -2 c3 -5 2 -12
-3 -15 -5 -3 -9 1 -9 9 0 17 3 19 12 6z m3685 -1 c0 -5 -5 -10 -11 -10 -5 0
-7 5 -4 10 3 6 8 10 11 10 2 0 4 -4 4 -10z m34 -6 c3 -8 2 -12 -4 -9 -6 3 -10
10 -10 16 0 14 7 11 14 -7z m-3879 -62 c-3 -3 -11 0 -18 7 -9 10 -8 11 6 5 10
-3 15 -9 12 -12z m3850 -51 c-9 -8 -36 -10 -30 -2 2 4 11 8 20 8 8 0 13 -3 10
-6z m-3790 -21 c3 -5 1 -10 -4 -10 -6 0 -11 5 -11 10 0 6 2 10 4 10 3 0 8 -4
11 -10z m-221 -178 c3 -5 -1 -9 -9 -9 -8 0 -12 4 -9 9 3 4 7 8 9 8 2 0 6 -4 9
-8z m4176 4 c0 -2 -8 -10 -17 -17 -16 -13 -17 -12 -4 4 13 16 21 21 21 13z
m-50 -20 c0 -2 -7 -7 -16 -10 -8 -3 -12 -2 -9 4 6 10 25 14 25 6z m-4119 -23
c13 -16 12 -17 -3 -4 -10 7 -18 15 -18 17 0 8 8 3 21 -13z m4165 -5 c3 -4 -1
-5 -10 -4 -8 1 -18 5 -22 8 -3 4 1 5 10 4 8 -1 18 -5 22 -8z m65 -85 c13 -16
12 -17 -3 -4 -17 13 -22 21 -14 21 2 0 10 -8 17 -17z m-38 -68 c-3 -9 -8 -14
-10 -11 -3 3 -2 9 2 15 9 16 15 13 8 -4z m88 -122 c13 -16 12 -17 -3 -4 -17
13 -22 21 -14 21 2 0 10 -8 17 -17z m9 -37 c0 -2 -8 -10 -17 -17 -16 -13 -17
-12 -4 4 13 16 21 21 21 13z m-4455 -26 c3 -5 1 -10 -4 -10 -6 0 -11 5 -11 10
0 6 2 10 4 10 3 0 8 -4 11 -10z m4456 -73 c-10 -9 -11 -8 -5 6 3 10 9 15 12
12 3 -3 0 -11 -7 -18z m100 6 c13 -16 12 -17 -3 -4 -17 13 -22 21 -14 21 2 0
10 -8 17 -17z m-4491 -7 c0 -3 -4 -8 -10 -11 -5 -3 -10 -1 -10 4 0 6 5 11 10
11 6 0 10 -2 10 -4z m-50 -60 c0 -2 -8 -10 -17 -17 -16 -13 -17 -12 -4 4 13
16 21 21 21 13z m4508 -91 c-3 -3 -9 2 -12 12 -6 14 -5 15 5 6 7 -7 10 -15 7
-18z m38 5 c0 -12 -4 -16 -9 -11 -5 5 -6 14 -3 20 10 15 12 14 12 -9z m84
-162 c0 -4 -4 -8 -9 -8 -6 0 -12 4 -15 8 -3 5 1 9 9 9 8 0 15 -4 15 -9z m0
-32 c0 -3 -4 -8 -10 -11 -5 -3 -10 -1 -10 4 0 6 5 11 10 11 6 0 10 -2 10 -4z
m-5 -166 c3 -5 1 -10 -4 -10 -6 0 -11 5 -11 10 0 6 2 10 4 10 3 0 8 -4 11 -10z
m-4751 -38 c3 -5 -1 -9 -9 -9 -8 0 -12 4 -9 9 3 4 7 8 9 8 2 0 6 -4 9 -8z m46
3 c0 -2 -6 -8 -13 -14 -10 -8 -14 -7 -14 2 0 8 6 14 14 14 7 0 13 -1 13 -2z
m4714 -3 c2 -4 -4 -8 -14 -8 -10 0 -16 4 -14 8 3 4 9 8 14 8 5 0 11 -4 14 -8z
m-4724 -86 c-7 -7 -13 -7 -20 0 -6 6 -3 10 10 10 13 0 16 -4 10 -10z m-4 -156
c0 -12 -4 -16 -9 -11 -5 5 -6 14 -3 20 10 15 12 14 12 -9z m-45 -13 c-10 -9
-11 -8 -5 6 3 10 9 15 12 12 3 -3 0 -11 -7 -18z m4800 -10 c-10 -9 -11 -8 -5
6 3 10 9 15 12 12 3 -3 0 -11 -7 -18z m-4698 -152 c-3 -9 -8 -14 -10 -11 -3 3
-2 9 2 15 9 16 15 13 8 -4z m2 -45 c3 -5 1 -10 -4 -10 -6 0 -11 5 -11 10 0 6
2 10 4 10 3 0 8 -4 11 -10z m4626 -137 c13 -16 12 -17 -3 -4 -17 13 -22 21
-14 21 2 0 10 -8 17 -17z m-4610 -16 c-10 -9 -11 -8 -5 6 3 10 9 15 12 12 3
-3 0 -11 -7 -18z m4574 -107 c-3 -5 -12 -10 -18 -10 -7 0 -6 4 3 10 19 12 23
12 15 0z m-4515 -114 c0 -2 -8 -10 -17 -17 -16 -13 -17 -12 -4 4 13 16 21 21
21 13z m4431 -123 c13 -16 12 -17 -3 -4 -17 13 -22 21 -14 21 2 0 10 -8 17
-17z m-4404 -8 c0 -8 -4 -12 -9 -9 -5 3 -6 10 -3 15 9 13 12 11 12 -6z m123
-231 c0 -8 -19 -13 -24 -6 -3 5 1 9 9 9 8 0 15 -2 15 -3z m4090 -80 c0 -8 -19
-13 -24 -6 -3 5 1 9 9 9 8 0 15 -2 15 -3z m90 -4 c0 -5 -5 -10 -11 -10 -5 0
-7 5 -4 10 3 6 8 10 11 10 2 0 4 -4 4 -10z m-4170 -34 c0 -2 -8 -10 -17 -17
-16 -13 -17 -12 -4 4 13 16 21 21 21 13z m27 -11 c0 -8 -4 -12 -9 -9 -5 3 -6
10 -3 15 9 13 12 11 12 -6z m38 -43 c-3 -3 -11 0 -18 7 -9 10 -8 11 6 5 10 -3
15 -9 12 -12z m9 -30 c2 -4 -4 -8 -14 -8 -10 0 -16 4 -14 8 3 4 9 8 14 8 5 0
11 -4 14 -8z m3896 -22 c0 -5 -5 -10 -11 -10 -5 0 -7 5 -4 10 3 6 8 10 11 10
2 0 4 -4 4 -10z m-40 -60 c0 -5 -2 -10 -4 -10 -3 0 -8 5 -11 10 -3 6 -1 10 4
10 6 0 11 -4 11 -10z m97 -5 c0 -8 -4 -12 -9 -9 -5 3 -6 10 -3 15 9 13 12 11
12 -6z m-3797 -71 c0 -8 -19 -13 -24 -6 -3 5 1 9 9 9 8 0 15 -2 15 -3z m-100
-24 c0 -5 -2 -10 -4 -10 -3 0 -8 5 -11 10 -3 6 -1 10 4 10 6 0 11 -4 11 -10z
m155 -48 c-3 -3 -11 0 -18 7 -9 10 -8 11 6 5 10 -3 15 -9 12 -12z m3579 -102
c-6 -6 -10 -3 -10 10 0 13 4 16 10 10 7 -7 7 -13 0 -20z m-83 -37 c13 -16 12
-17 -3 -4 -17 13 -22 21 -14 21 2 0 10 -8 17 -17z m19 -29 c0 -8 -19 -13 -24
-6 -3 5 1 9 9 9 8 0 15 -2 15 -3z m-3289 -121 c13 -16 12 -17 -3 -4 -10 7 -18
15 -18 17 0 8 8 3 21 -13z m34 -2 c3 -5 2 -12 -3 -15 -5 -3 -9 1 -9 9 0 17 3
19 12 6z m36 -8 c13 -16 12 -17 -3 -4 -10 7 -18 15 -18 17 0 8 8 3 21 -13z
m64 -53 c3 -5 1 -10 -4 -10 -6 0 -11 5 -11 10 0 6 2 10 4 10 3 0 8 -4 11 -10z
m2805 0 c0 -5 -5 -10 -11 -10 -5 0 -7 5 -4 10 3 6 8 10 11 10 2 0 4 -4 4 -10z
m106 -22 c3 -4 -1 -5 -10 -4 -8 1 -18 5 -22 8 -3 4 1 5 10 4 8 -1 18 -5 22 -8z
m-135 -45 c13 -16 12 -17 -3 -4 -10 7 -18 15 -18 17 0 8 8 3 21 -13z m-2751
-17 c0 -2 -8 -10 -17 -17 -16 -13 -17 -12 -4 4 13 16 21 21 21 13z m2540 -76
c0 -5 -5 -10 -11 -10 -5 0 -7 5 -4 10 3 6 8 10 11 10 2 0 4 -4 4 -10z m-2130
-94 c0 -2 -8 -10 -17 -17 -16 -13 -17 -12 -4 4 13 16 21 21 21 13z m-96 -44
c3 -5 -1 -9 -9 -9 -8 0 -12 4 -9 9 3 4 7 8 9 8 2 0 6 -4 9 -8z m1863 -27 c0
-8 -4 -12 -9 -9 -5 3 -6 10 -3 15 9 13 12 11 12 -6z m-117 -35 c0 -5 -5 -10
-11 -10 -5 0 -7 5 -4 10 3 6 8 10 11 10 2 0 4 -4 4 -10z m-1464 -20 c0 -12 -4
-16 -9 -11 -5 5 -6 14 -3 20 10 15 12 14 12 -9z m-36 0 c0 -5 -5 -10 -11 -10
-5 0 -7 5 -4 10 3 6 8 10 11 10 2 0 4 -4 4 -10z m1605 0 c-3 -5 -12 -10 -18
-10 -7 0 -6 4 3 10 19 12 23 12 15 0z m-1315 -20 c8 -5 11 -10 5 -10 -5 0 -17
5 -25 10 -8 5 -10 10 -5 10 6 0 17 -5 25 -10z m1347 -15 c0 -8 -4 -12 -9 -9
-5 3 -6 10 -3 15 9 13 12 11 12 -6z m-197 -9 c-7 -7 -13 -7 -20 0 -6 6 -3 10
10 10 13 0 16 -4 10 -10z m164 6 c2 -4 -4 -8 -14 -8 -10 0 -16 4 -14 8 3 4 9
8 14 8 5 0 11 -4 14 -8z m-464 -22 c0 -5 -5 -10 -11 -10 -5 0 -7 5 -4 10 3 6
8 10 11 10 2 0 4 -4 4 -10z m-519 -17 c13 -16 12 -17 -3 -4 -17 13 -22 21 -14
21 2 0 10 -8 17 -17z m-350 -10 c13 -16 12 -17 -3 -4 -17 13 -22 21 -14 21 2
0 10 -8 17 -17z m1169 7 c0 -5 -2 -10 -4 -10 -3 0 -8 5 -11 10 -3 6 -1 10 4
10 6 0 11 -4 11 -10z m-1030 -34 c0 -2 -8 -10 -17 -17 -16 -13 -17 -12 -4 4
13 16 21 21 21 13z m108 -51 c-3 -3 -9 2 -12 12 -6 14 -5 15 5 6 7 -7 10 -15
7 -18z m398 5 c0 -12 -4 -16 -9 -11 -5 5 -6 14 -3 20 10 15 12 14 12 -9z
m-361 0 c3 -5 1 -10 -4 -10 -6 0 -11 5 -11 10 0 6 2 10 4 10 3 0 8 -4 11 -10z"/>
</g>
</svg>
